<svg xmlns="http://www.w3.org/2000/svg" style="margin:auto;display:block;" width="260" height="77" preserveAspectRatio="xMidYMid">
<style type="text/css">
  text {
    text-anchor: middle; font-size: 53px; opacity: 0;
  }
</style>
<g style="transform-origin:130px 38.5px;transform:scale(1)">
<g transform="translate(130,38.5)">
  <g transform="translate(0,0)"><g class="path" style="transform: scale(0.91); transform-origin: -110.715px -5.647px; animation: 1s linear -0.6s infinite normal forwards running breath-0563828c-9378-4193-8dd6-263a6adecb9b;"><path d="M3.71-39.38L3.71-39.38Q3.71-40.28 4.29-40.84L4.29-40.84L4.29-40.84Q4.88-41.39 5.72-41.39L5.72-41.39L5.72-41.39Q6.63-41.39 7.18-40.84L7.18-40.84L7.18-40.84Q7.74-40.28 7.74-39.38L7.74-39.38L7.74-9.17L7.74-9.17Q7.74-6.89 8.67-5.46L8.67-5.46L8.67-5.46Q9.59-4.03 11.02-4.03L11.02-4.03L12.35-4.03L12.35-4.03Q13.14-4.03 13.62-3.47L13.62-3.47L13.62-3.47Q14.10-2.92 14.10-2.01L14.10-2.01L14.10-2.01Q14.10-1.11 13.44-0.56L13.44-0.56L13.44-0.56Q12.77 0 11.71 0L11.71 0L11.02 0L11.02 0Q7.79 0 5.75-2.57L5.75-2.57L5.75-2.57Q3.71-5.14 3.71-9.17L3.71-9.17L3.71-39.38" fill="#1d0e0b" stroke="none" stroke-width="none" transform="translate(-119.6199951171875,15.047999947287819)" style="fill: rgb(29, 14, 11);"></path></g><g class="path" style="transform: scale(0.91); transform-origin: -86.705px 0.553px; animation: 1s linear -0.54s infinite normal forwards running breath-0563828c-9378-4193-8dd6-263a6adecb9b;"><path d="M32.91-29.26L32.91-29.26Q37.10-29.26 40.44-27.35L40.44-27.35L40.44-27.35Q43.78-25.44 45.71-22.05L45.71-22.05L45.71-22.05Q47.65-18.66 47.65-14.47L47.65-14.47L47.65-14.47Q47.65-10.28 45.74-6.92L45.74-6.92L45.74-6.92Q43.83-3.55 40.47-1.64L40.47-1.64L40.47-1.64Q37.10 0.27 32.91 0.27L32.91 0.27L32.91 0.27Q28.73 0.27 25.36-1.64L25.36-1.64L25.36-1.64Q21.99-3.55 20.09-6.92L20.09-6.92L20.09-6.92Q18.18-10.28 18.18-14.47L18.18-14.47L18.18-14.47Q18.18-18.66 20.09-22.05L20.09-22.05L20.09-22.05Q21.99-25.44 25.36-27.35L25.36-27.35L25.36-27.35Q28.73-29.26 32.91-29.26L32.91-29.26zM32.91-25.55L32.91-25.55Q29.89-25.55 27.43-24.11L27.43-24.11L27.43-24.11Q24.96-22.68 23.56-20.17L23.56-20.17L23.56-20.17Q22.15-17.65 22.15-14.47L22.15-14.47L22.15-14.47Q22.15-11.34 23.56-8.82L23.56-8.82L23.56-8.82Q24.96-6.31 27.43-4.88L27.43-4.88L27.43-4.88Q29.89-3.44 32.91-3.44L32.91-3.44L32.91-3.44Q35.99-3.44 38.42-4.88L38.42-4.88L38.42-4.88Q40.86-6.31 42.24-8.82L42.24-8.82L42.24-8.82Q43.62-11.34 43.62-14.47L43.62-14.47L43.62-14.47Q43.62-17.65 42.24-20.17L42.24-20.17L42.24-20.17Q40.86-22.68 38.42-24.11L38.42-24.11L38.42-24.11Q35.99-25.55 32.91-25.55L32.91-25.55" fill="#1d0e0b" stroke="none" stroke-width="none" transform="translate(-119.6199951171875,15.047999947287819)" style="fill: rgb(119, 64, 35);"></path></g><g class="path" style="transform: scale(0.91); transform-origin: -50.825px 0.553px; animation: 1s linear -0.48s infinite normal forwards running breath-0563828c-9378-4193-8dd6-263a6adecb9b;"><path d="M68.79-29.26L68.79-29.26Q72.93-29.26 76.29-27.32L76.29-27.32L76.29-27.32Q79.66-25.39 81.59-22.00L81.59-22.00L81.59-22.00Q83.53-18.60 83.53-14.47L83.53-14.47L83.53-2.01L83.53-2.01Q83.53-1.17 82.94-0.58L82.94-0.58L82.94-0.58Q82.36 0 81.46 0L81.46 0L81.46 0Q80.56 0 79.98-0.56L79.98-0.56L79.98-0.56Q79.39-1.11 79.39-2.01L79.39-2.01L79.39-5.19L79.39-5.19Q77.54-2.65 74.68-1.19L74.68-1.19L74.68-1.19Q71.81 0.27 68.37 0.27L68.37 0.27L68.37 0.27Q64.34 0.27 61.08-1.67L61.08-1.67L61.08-1.67Q57.82-3.60 55.94-6.97L55.94-6.97L55.94-6.97Q54.06-10.33 54.06-14.47L54.06-14.47L54.06-14.47Q54.06-18.60 55.99-22.00L55.99-22.00L55.99-22.00Q57.93-25.39 61.29-27.32L61.29-27.32L61.29-27.32Q64.66-29.26 68.79-29.26L68.79-29.26zM68.79-3.44L68.79-3.44Q71.81-3.44 74.25-4.88L74.25-4.88L74.25-4.88Q76.69-6.31 78.10-8.82L78.10-8.82L78.10-8.82Q79.50-11.34 79.50-14.47L79.50-14.47L79.50-14.47Q79.50-17.60 78.10-20.11L78.10-20.11L78.10-20.11Q76.69-22.63 74.25-24.09L74.25-24.09L74.25-24.09Q71.81-25.55 68.79-25.55L68.79-25.55L68.79-25.55Q65.77-25.55 63.31-24.09L63.31-24.09L63.31-24.09Q60.84-22.63 59.44-20.11L59.44-20.11L59.44-20.11Q58.03-17.60 58.03-14.47L58.03-14.47L58.03-14.47Q58.03-11.34 59.44-8.82L59.44-8.82L59.44-8.82Q60.84-6.31 63.31-4.88L63.31-4.88L63.31-4.88Q65.77-3.44 68.79-3.44L68.79-3.44" fill="#1d0e0b" stroke="none" stroke-width="none" transform="translate(-119.6199951171875,15.047999947287819)" style="fill: rgb(216, 140, 81);"></path></g><g class="path" style="transform: scale(0.91); transform-origin: -14.945px -5.512px; animation: 1s linear -0.42s infinite normal forwards running breath-0563828c-9378-4193-8dd6-263a6adecb9b;"><path d="M119.36-27.45L119.36-27.45Q119.41-27.29 119.41-26.98L119.41-26.98L119.41-14.52L119.41-14.52Q119.41-10.39 117.47-7.00L117.47-7.00L117.47-7.00Q115.54-3.60 112.17-1.67L112.17-1.67L112.17-1.67Q108.81 0.27 104.67 0.27L104.67 0.27L104.67 0.27Q100.54 0.27 97.18-1.67L97.18-1.67L97.18-1.67Q93.81-3.60 91.88-7.00L91.88-7.00L91.88-7.00Q89.94-10.39 89.94-14.52L89.94-14.52L89.94-14.52Q89.94-18.66 91.82-22.02L91.82-22.02L91.82-22.02Q93.70-25.39 96.96-27.32L96.96-27.32L96.96-27.32Q100.22-29.26 104.25-29.26L104.25-29.26L104.25-29.26Q107.70-29.26 110.56-27.80L110.56-27.80L110.56-27.80Q113.42-26.34 115.28-23.80L115.28-23.80L115.28-39.33L115.28-39.33Q115.28-40.23 115.86-40.81L115.86-40.81L115.86-40.81Q116.44-41.39 117.34-41.39L117.34-41.39L117.34-41.39Q118.24-41.39 118.80-40.81L118.80-40.81L118.80-40.81Q119.36-40.23 119.36-39.33L119.36-39.33L119.36-27.45zM104.67-3.44L104.67-3.44Q107.70-3.44 110.13-4.90L110.13-4.90L110.13-4.90Q112.57-6.36 113.98-8.88L113.98-8.88L113.98-8.88Q115.38-11.39 115.38-14.52L115.38-14.52L115.38-14.52Q115.38-15.42 115.33-15.85L115.33-15.85L115.33-15.85Q115.28-15.95 115.28-16.11L115.28-16.11L115.28-16.11Q114.75-20.25 111.80-22.90L111.80-22.90L111.80-22.90Q108.86-25.55 104.67-25.55L104.67-25.55L104.67-25.55Q101.65-25.55 99.19-24.11L99.19-24.11L99.19-24.11Q96.72-22.68 95.32-20.17L95.32-20.17L95.32-20.17Q93.92-17.65 93.92-14.52L93.92-14.52L93.92-14.52Q93.92-11.39 95.32-8.88L95.32-8.88L95.32-8.88Q96.72-6.36 99.19-4.90L99.19-4.90L99.19-4.90Q101.65-3.44 104.67-3.44L104.67-3.44" fill="#1d0e0b" stroke="none" stroke-width="none" transform="translate(-119.6199951171875,15.047999947287819)" style="fill: rgb(243, 231, 201);"></path></g><g class="path" style="transform: scale(0.91); transform-origin: 12.22px 0.553px; animation: 1s linear -0.36s infinite normal forwards running breath-0563828c-9378-4193-8dd6-263a6adecb9b;"><path d="M129.80-26.92L129.80-26.92Q129.80-27.82 130.38-28.41L130.38-28.41L130.38-28.41Q130.96-28.99 131.86-28.99L131.86-28.99L131.86-28.99Q132.77-28.99 133.32-28.41L133.32-28.41L133.32-28.41Q133.88-27.82 133.88-26.92L133.88-26.92L133.88-2.07L133.88-2.07Q133.88-1.17 133.32-0.58L133.32-0.58L133.32-0.58Q132.77 0 131.86 0L131.86 0L131.86 0Q130.96 0 130.38-0.58L130.38-0.58L130.38-0.58Q129.80-1.17 129.80-2.07L129.80-2.07L129.80-26.92" fill="#1d0e0b" stroke="none" stroke-width="none" transform="translate(-119.6199951171875,15.047999947287819)" style="fill: rgb(255, 249, 245);"></path></g><g class="path" style="transform: scale(0.91); transform-origin: 12.22px -22.342px; animation: 1s linear -0.3s infinite normal forwards running breath-0563828c-9378-4193-8dd6-263a6adecb9b;"><path d="M131.86-40.28L131.86-40.28Q133.03-40.28 133.88-39.48L133.88-39.48L133.88-39.48Q134.73-38.69 134.73-37.42L134.73-37.42L134.73-37.42Q134.73-36.20 133.88-35.35L133.88-35.35L133.88-35.35Q133.03-34.50 131.81-34.50L131.81-34.50L131.81-34.50Q130.59-34.50 129.77-35.35L129.77-35.35L129.77-35.35Q128.95-36.20 128.95-37.42L128.95-37.42L128.95-37.42Q128.95-38.69 129.80-39.48L129.80-39.48L129.80-39.48Q130.65-40.28 131.86-40.28L131.86-40.28" fill="#1d0e0b" stroke="none" stroke-width="none" transform="translate(-119.6199951171875,15.047999947287819)" style="fill: rgb(29, 14, 11);"></path></g><g class="path" style="transform: scale(0.91); transform-origin: 38.085px 0.393001px; animation: 1s linear -0.24s infinite normal forwards running breath-0563828c-9378-4193-8dd6-263a6adecb9b;"><path d="M157.99-29.31L157.99-29.31Q161.76-29.31 164.75-27.72L164.75-27.72L164.75-27.72Q167.75-26.13 169.44-23.08L169.44-23.08L169.44-23.08Q171.14-20.03 171.14-15.79L171.14-15.79L171.14-2.01L171.14-2.01Q171.14-1.17 170.55-0.58L170.55-0.58L170.55-0.58Q169.97 0 169.12 0L169.12 0L169.12 0Q168.22 0 167.64-0.58L167.64-0.58L167.64-0.58Q167.06-1.17 167.06-2.01L167.06-2.01L167.06-15.79L167.06-15.79Q167.06-20.51 164.43-22.98L164.43-22.98L164.43-22.98Q161.81-25.44 157.57-25.44L157.57-25.44L157.57-25.44Q154.97-25.44 152.88-24.43L152.88-24.43L152.88-24.43Q150.78-23.43 149.57-21.65L149.57-21.65L149.57-21.65Q148.35-19.88 148.35-17.70L148.35-17.70L148.35-2.01L148.35-2.01Q148.35-1.11 147.79-0.56L147.79-0.56L147.79-0.56Q147.23 0 146.33 0L146.33 0L146.33 0Q145.43 0 144.85-0.56L144.85-0.56L144.85-0.56Q144.27-1.11 144.27-2.01L144.27-2.01L144.27-26.92L144.27-26.92Q144.27-27.82 144.85-28.41L144.85-28.41L144.85-28.41Q145.43-28.99 146.33-28.99L146.33-28.99L146.33-28.99Q147.23-28.99 147.79-28.41L147.79-28.41L147.79-28.41Q148.35-27.82 148.35-26.92L148.35-26.92L148.35-25.12L148.35-25.12Q150.10-27.08 152.59-28.20L152.59-28.20L152.59-28.20Q155.08-29.31 157.99-29.31L157.99-29.31" fill="#1d0e0b" stroke="none" stroke-width="none" transform="translate(-119.6199951171875,15.047999947287819)" style="fill: rgb(119, 64, 35);"></path></g><g class="path" style="transform: scale(0.91); transform-origin: 73.725px 6.143px; animation: 1s linear -0.18s infinite normal forwards running breath-0563828c-9378-4193-8dd6-263a6adecb9b;"><path d="M193.34-29.26L193.34-29.26Q197.58-29.26 200.92-27.37L200.92-27.37L200.92-27.37Q204.26-25.49 206.17-22.13L206.17-22.13L206.17-22.13Q208.08-18.76 208.08-14.47L208.08-14.47L208.08-3.66L208.08-3.66Q208.08 0.58 206.20 4.03L206.20 4.03L206.20 4.03Q204.31 7.47 200.98 9.46L200.98 9.46L200.98 9.46Q197.64 11.45 193.45 11.45L193.45 11.45L193.45 11.45Q189.37 11.45 186.19 9.91L186.19 9.91L186.19 9.91Q183.01 8.37 180.84 5.62L180.84 5.62L180.84 5.62Q180.36 5.09 180.36 4.40L180.36 4.40L180.36 4.40Q180.36 3.60 181.10 3.02L181.10 3.02L181.10 3.02Q181.63 2.65 182.27 2.65L182.27 2.65L182.27 2.65Q182.74 2.65 183.22 2.89L183.22 2.89L183.22 2.89Q183.70 3.13 183.96 3.50L183.96 3.50L183.96 3.50Q185.55 5.51 187.99 6.63L187.99 6.63L187.99 6.63Q190.43 7.74 193.50 7.74L193.50 7.74L193.50 7.74Q196.47 7.74 198.88 6.28L198.88 6.28L198.88 6.28Q201.29 4.82 202.67 2.20L202.67 2.20L202.67 2.20Q204.05-0.42 204.05-3.82L204.05-3.82L204.05-6.20L204.05-6.20Q202.46-3.18 199.55-1.46L199.55-1.46L199.55-1.46Q196.63 0.27 192.92 0.27L192.92 0.27L192.92 0.27Q188.79 0.27 185.53-1.62L185.53-1.62L185.53-1.62Q182.27-3.50 180.44-6.86L180.44-6.86L180.44-6.86Q178.61-10.23 178.61-14.47L178.61-14.47L178.61-14.47Q178.61-18.76 180.52-22.13L180.52-22.13L180.52-22.13Q182.43-25.49 185.79-27.37L185.79-27.37L185.79-27.37Q189.16-29.26 193.34-29.26L193.34-29.26zM193.34-3.44L193.34-3.44Q196.42-3.44 198.86-4.85L198.86-4.85L198.86-4.85Q201.29-6.25 202.67-8.77L202.67-8.77L202.67-8.77Q204.05-11.29 204.05-14.47L204.05-14.47L204.05-14.47Q204.05-17.65 202.67-20.17L202.67-20.17L202.67-20.17Q201.29-22.68 198.86-24.11L198.86-24.11L198.86-24.11Q196.42-25.55 193.34-25.55L193.34-25.55L193.34-25.55Q190.22-25.55 187.78-24.11L187.78-24.11L187.78-24.11Q185.34-22.68 183.96-20.17L183.96-20.17L183.96-20.17Q182.59-17.65 182.59-14.47L182.59-14.47L182.59-14.47Q182.59-11.29 183.96-8.77L183.96-8.77L183.96-8.77Q185.34-6.25 187.78-4.85L187.78-4.85L187.78-4.85Q190.22-3.44 193.34-3.44L193.34-3.44" fill="#1d0e0b" stroke="none" stroke-width="none" transform="translate(-119.6199951171875,15.047999947287819)" style="fill: rgb(216, 140, 81);"></path></g><g class="path" style="transform: scale(0.91); transform-origin: 97.365px 12.798px; animation: 1s linear -0.12s infinite normal forwards running breath-0563828c-9378-4193-8dd6-263a6adecb9b;"><path d="M216.98-5.35L216.98-5.35Q218.25-5.35 219.16-4.43L219.16-4.43L219.16-4.43Q220.06-3.50 220.06-2.23L220.06-2.23L220.06-2.23Q220.06-0.95 219.16-0.05L219.16-0.05L219.16-0.05Q218.25 0.85 216.98 0.85L216.98 0.85L216.98 0.85Q215.71 0.85 214.81-0.05L214.81-0.05L214.81-0.05Q213.91-0.95 213.91-2.23L213.91-2.23L213.91-2.23Q213.91-3.55 214.84-4.45L214.84-4.45L214.84-4.45Q215.76-5.35 216.98-5.35L216.98-5.35" fill="#1d0e0b" stroke="none" stroke-width="none" transform="translate(-119.6199951171875,15.047999947287819)" style="fill: rgb(243, 231, 201);"></path></g><g class="path" style="transform: scale(0.91); transform-origin: 108.81px 12.798px; animation: 1s linear -0.06s infinite normal forwards running breath-0563828c-9378-4193-8dd6-263a6adecb9b;"><path d="M228.43-5.35L228.43-5.35Q229.70-5.35 230.60-4.43L230.60-4.43L230.60-4.43Q231.50-3.50 231.50-2.23L231.50-2.23L231.50-2.23Q231.50-0.95 230.60-0.05L230.60-0.05L230.60-0.05Q229.70 0.85 228.43 0.85L228.43 0.85L228.43 0.85Q227.16 0.85 226.26-0.05L226.26-0.05L226.26-0.05Q225.36-0.95 225.36-2.23L225.36-2.23L225.36-2.23Q225.36-3.55 226.28-4.45L226.28-4.45L226.28-4.45Q227.21-5.35 228.43-5.35L228.43-5.35" fill="#1d0e0b" stroke="none" stroke-width="none" transform="translate(-119.6199951171875,15.047999947287819)" style="fill: rgb(255, 249, 245);"></path></g><g class="path" style="transform: scale(0.91); transform-origin: 120.255px 12.798px; animation: 1s linear 0s infinite normal forwards running breath-0563828c-9378-4193-8dd6-263a6adecb9b;"><path d="M239.88-5.35L239.88-5.35Q241.15-5.35 242.05-4.43L242.05-4.43L242.05-4.43Q242.95-3.50 242.95-2.23L242.95-2.23L242.95-2.23Q242.95-0.95 242.05-0.05L242.05-0.05L242.05-0.05Q241.15 0.85 239.88 0.85L239.88 0.85L239.88 0.85Q238.61 0.85 237.71-0.05L237.71-0.05L237.71-0.05Q236.80-0.95 236.80-2.23L236.80-2.23L236.80-2.23Q236.80-3.55 237.73-4.45L237.73-4.45L237.73-4.45Q238.66-5.35 239.88-5.35L239.88-5.35" fill="#1d0e0b" stroke="none" stroke-width="none" transform="translate(-119.6199951171875,15.047999947287819)" style="fill: rgb(29, 14, 11);"></path></g></g>
</g>
</g>
</svg>